<svg xmlns="http://www.w3.org/2000/svg" viewBox="0 0 1600 1200" width="1600" height="1200">
  <defs>
    <style>
      @import url('https://fonts.googleapis.com/css2?family=JetBrains+Mono:wght@400;700&amp;family=Inter:wght@400;700&amp;display=swap');
      .mono { font-family: 'JetBrains Mono', 'Courier New', monospace; }
      .sans { font-family: 'Inter', 'Arial', sans-serif; }
    </style>
    <!-- Glow filter for WiFi -->
    <filter id="glow">
      <feGaussianBlur stdDeviation="3" result="blur"/>
      <feMerge><feMergeNode in="blur"/><feMergeNode in="SourceGraphic"/></feMerge>
    </filter>
    <filter id="glow-strong">
      <feGaussianBlur stdDeviation="6" result="blur"/>
      <feMerge><feMergeNode in="blur"/><feMergeNode in="SourceGraphic"/></feMerge>
    </filter>
    <!-- Grid pattern -->
    <pattern id="grid" width="40" height="40" patternUnits="userSpaceOnUse">
      <path d="M 40 0 L 0 0 0 40" fill="none" stroke="#131920" stroke-width="0.5"/>
    </pattern>
    <!-- Coffee gradients -->
    <linearGradient id="coffee-grad" x1="0" y1="0" x2="0" y2="1">
      <stop offset="0%" stop-color="#6B2F10"/>
      <stop offset="100%" stop-color="#2A0F05"/>
    </linearGradient>
    <linearGradient id="chrome-grad" x1="0" y1="0" x2="1" y2="0">
      <stop offset="0%" stop-color="#D6D3D1"/>
      <stop offset="40%" stop-color="#A8A29E"/>
      <stop offset="100%" stop-color="#78716C"/>
    </linearGradient>
    <linearGradient id="crema-grad" x1="0" y1="0" x2="1" y2="0">
      <stop offset="0%" stop-color="#C4832A"/>
      <stop offset="50%" stop-color="#E8AA6A"/>
      <stop offset="100%" stop-color="#C4832A"/>
    </linearGradient>
    <radialGradient id="coffee-drop-grad">
      <stop offset="0%" stop-color="#C4832A"/>
      <stop offset="100%" stop-color="#7B3F2A"/>
    </radialGradient>
  </defs>

  <!-- Background -->
  <rect width="1600" height="1200" fill="#0D1117"/>
  <rect width="1600" height="1200" fill="url(#grid)"/>

  <!-- ==================== TITLE ==================== -->
  <text x="60" y="65" class="sans" font-size="48" font-weight="700" fill="#F59E0B">BREWNET</text>
  <text x="60" y="100" class="sans" font-size="20" fill="#8B949E">Where every packet is freshly brewed</text>
  <line x1="60" y1="118" x2="500" y2="118" stroke="#D97706" stroke-width="2"/>

  <!-- Version info top right -->
  <text x="1410" y="50" class="mono" font-size="13" fill="#8B949E">v1.0.0</text>
  <text x="1410" y="68" class="mono" font-size="13" fill="#8B949E">HOME SERVER</text>
  <text x="1410" y="86" class="mono" font-size="13" fill="#8B949E">MGMT SYSTEM</text>

  <!-- Mini coffee cups top right -->
  <g transform="translate(1370, 36)">
    <!-- cup body -->
    <polygon points="0,6 16,6 14,20 2,20" fill="#2A1A0A" stroke="#D97706" stroke-width="1.2"/>
    <!-- crema inside -->
    <ellipse cx="8" cy="8" rx="6" ry="2" fill="#C4832A"/>
    <!-- saucer -->
    <ellipse cx="8" cy="22" rx="10" ry="3" fill="#44403C" stroke="#D97706" stroke-width="1"/>
    <!-- handle -->
    <path d="M16,9 Q22,9 22,14 Q22,19 16,19" fill="none" stroke="#D97706" stroke-width="1.4"/>
    <!-- steam -->
    <path d="M5,3 Q3,-1 5,-5" fill="none" stroke="#9CA3AF" stroke-width="1" opacity="0.7"/>
    <path d="M11,3 Q13,-1 11,-5" fill="none" stroke="#9CA3AF" stroke-width="1" opacity="0.7"/>
  </g>
  <g transform="translate(1398, 40)">
    <polygon points="0,6 16,6 14,20 2,20" fill="#2A1A0A" stroke="#D97706" stroke-width="1.2"/>
    <ellipse cx="8" cy="8" rx="6" ry="2" fill="#C4832A"/>
    <ellipse cx="8" cy="22" rx="10" ry="3" fill="#44403C" stroke="#D97706" stroke-width="1"/>
    <path d="M16,9 Q22,9 22,14 Q22,19 16,19" fill="none" stroke="#D97706" stroke-width="1.4"/>
    <path d="M5,3 Q3,-1 5,-5" fill="none" stroke="#9CA3AF" stroke-width="1" opacity="0.7"/>
    <path d="M11,3 Q13,-1 11,-5" fill="none" stroke="#9CA3AF" stroke-width="1" opacity="0.7"/>
  </g>
  <g transform="translate(1426, 34)">
    <polygon points="0,6 16,6 14,20 2,20" fill="#2A1A0A" stroke="#D97706" stroke-width="1.2"/>
    <ellipse cx="8" cy="8" rx="6" ry="2" fill="#C4832A"/>
    <ellipse cx="8" cy="22" rx="10" ry="3" fill="#44403C" stroke="#D97706" stroke-width="1"/>
    <path d="M16,9 Q22,9 22,14 Q22,19 16,19" fill="none" stroke="#D97706" stroke-width="1.4"/>
    <path d="M5,3 Q3,-1 5,-5" fill="none" stroke="#9CA3AF" stroke-width="1" opacity="0.7"/>
    <path d="M11,3 Q13,-1 11,-5" fill="none" stroke="#9CA3AF" stroke-width="1" opacity="0.7"/>
  </g>

  <!-- ==================== MONITOR ==================== -->
  <g id="monitor">
    <!-- Monitor body -->
    <rect x="280" y="280" width="620" height="420" rx="16" fill="#1E2530" stroke="#2D3748" stroke-width="2"/>
    <!-- Screen -->
    <rect x="300" y="300" width="580" height="360" rx="8" fill="#0A0E14"/>
    
    <!-- Terminal content - brewnet themed -->
    <text x="318" y="330" class="mono" font-size="13" fill="#10B981">$ brewnet brew --core</text>
    <text x="318" y="356" class="mono" font-size="13" fill="#F59E0B">==&gt; Brewing brewnet/core...</text>
    <text x="318" y="382" class="mono" font-size="13" fill="#FCD34D">&#x2615; Brewing fresh packets...</text>
    
    <!-- WiFi signal bar -->
    <text x="318" y="408" class="mono" font-size="13" fill="#06B6D4">==&gt; WiFi signal: </text>
    <rect x="463" y="396" width="60" height="14" rx="2" fill="#1A1A2E" stroke="#30363D" stroke-width="1"/>
    <rect x="464" y="397" width="48" height="12" rx="1" fill="#06B6D4"/>
    <text x="530" y="408" class="mono" font-size="13" fill="#06B6D4"> 82%</text>
    
    <text x="318" y="434" class="mono" font-size="13" fill="#10B981">==&gt; Network brewnet: READY</text>
    <text x="318" y="466" class="mono" font-size="13" fill="#E6EDF3">$ ping home.local</text>
    <text x="318" y="492" class="mono" font-size="13" fill="#8B949E">  64 bytes: seq=1 ttl=64 time=0.42ms</text>
    <text x="318" y="518" class="mono" font-size="13" fill="#8B949E">  64 bytes: seq=2 ttl=64 time=0.38ms</text>
    <text x="318" y="550" class="mono" font-size="13" fill="#E6EDF3">$ brewnet serve --port 8080</text>
    <text x="318" y="576" class="mono" font-size="13" fill="#F59E0B">==&gt; Serving fresh brewnet on :8080 &#x2615;</text>
    
    <!-- Blinking cursor -->
    <rect x="318" y="590" width="10" height="16" fill="#10B981">
      <animate attributeName="opacity" values="1;0;1" dur="1.2s" repeatCount="indefinite"/>
    </rect>

    <!-- Camera dot -->
    <circle cx="590" cy="668" r="4" fill="#4A5568"/>
    
    <!-- Stand -->
    <rect x="550" y="700" width="80" height="30" fill="#2D3748"/>
    <rect x="510" y="730" width="160" height="10" rx="3" fill="#2D3748" stroke="#3D4A5C" stroke-width="1"/>
  </g>

  <!-- ==================== CONNECTION PIPE ==================== -->
  <rect x="895" y="425" width="60" height="20" rx="6" fill="#78716C" stroke="#A8A29E" stroke-width="2"/>

  <!-- ==================== COFFEE BREWER (Pour-over) ==================== -->
  <g id="coffee-brewer" transform="translate(930, 300)">

    <!-- Stand: vertical rod -->
    <rect x="42" y="55" width="9" height="290" rx="4" fill="#3A3730" stroke="#78716C" stroke-width="1.5"/>

    <!-- Stand: bottom base plate -->
    <rect x="5" y="338" width="90" height="13" rx="5" fill="#3A3730" stroke="#78716C" stroke-width="2"/>
    <!-- Base feet -->
    <rect x="8"  y="347" width="22" height="6" rx="3" fill="#2A2520"/>
    <rect x="70" y="347" width="22" height="6" rx="3" fill="#2A2520"/>

    <!-- Stand: upper horizontal arm (dripper holder) -->
    <rect x="22" y="68" width="55" height="7" rx="3" fill="#3A3730" stroke="#78716C" stroke-width="1.5"/>

    <!-- Dripper holder ring -->
    <circle cx="47" cy="94" r="28" fill="none" stroke="#78716C" stroke-width="4"/>
    <circle cx="47" cy="94" r="23" fill="#1E2530" opacity="0.55"/>

    <!-- === POUR-OVER CONE (V60 style) === -->
    <!-- Outer cone body -->
    <polygon points="16,98 78,98 62,178 32,178" fill="#D97706" stroke="#F59E0B" stroke-width="2.5"/>
    <!-- Ribbing lines -->
    <line x1="24" y1="106" x2="33" y2="173" stroke="#F59E0B" stroke-width="0.9" opacity="0.45"/>
    <line x1="34" y1="101" x2="38" y2="177" stroke="#F59E0B" stroke-width="0.9" opacity="0.45"/>
    <line x1="47" y1="99"  x2="47" y2="178" stroke="#F59E0B" stroke-width="0.9" opacity="0.45"/>
    <line x1="60" y1="101" x2="56" y2="177" stroke="#F59E0B" stroke-width="0.9" opacity="0.45"/>
    <line x1="70" y1="106" x2="61" y2="173" stroke="#F59E0B" stroke-width="0.9" opacity="0.45"/>
    <!-- Paper filter -->
    <polygon points="20,101 74,101 59,174 35,174" fill="#FDE68A" opacity="0.88"/>
    <!-- Coffee grounds on filter -->
    <ellipse cx="47" cy="171" rx="18" ry="5"   fill="#2A0F05"/>
    <ellipse cx="47" cy="168" rx="12" ry="3.2" fill="#3D1A0A" opacity="0.8"/>
    <!-- BN badge on cone -->
    <circle cx="47" cy="138" r="12" fill="#1C1917" opacity="0.75"/>
    <text x="47" y="142" class="mono" font-size="10" fill="#F59E0B" text-anchor="middle" font-weight="700">BN</text>

    <!-- === GOOSENECK KETTLE (left, pouring) === -->
    <!-- Kettle body -->
    <ellipse cx="130" cy="115" rx="26" ry="36" fill="#2A2520" stroke="#78716C" stroke-width="2"/>
    <!-- Water inside (tinted) -->
    <ellipse cx="130" cy="122" rx="20" ry="16" fill="#1A3A5C" opacity="0.35"/>
    <!-- Kettle lid -->
    <ellipse cx="130" cy="79"  rx="26" ry="6"  fill="#3A3530" stroke="#78716C" stroke-width="1.5"/>
    <!-- Lid knob -->
    <circle  cx="130" cy="74"  r="5"            fill="#F59E0B"/>
    <!-- Kettle handle (right side, loop) -->
    <path d="M154,98 Q172,98 172,115 Q172,132 154,132"
          fill="none" stroke="#44403C" stroke-width="5" stroke-linecap="round"/>
    <!-- Gooseneck spout (curved, pointing left-down toward dripper) -->
    <path d="M106,95 Q88,88 80,100 Q72,112 74,130 Q76,148 68,158"
          fill="none" stroke="#78716C" stroke-width="7" stroke-linecap="round"/>
    <!-- Spout tip highlight -->
    <circle cx="68" cy="159" r="4" fill="#A8A29E"/>

    <!-- Water stream from spout to dripper -->
    <path d="M68,160 Q60,168 52,176"
          fill="none" stroke="#93C5FD" stroke-width="3.5" stroke-linecap="round" opacity="0.5">
      <animate attributeName="opacity" values="0.3;0.75;0.3" dur="1.4s" repeatCount="indefinite"/>
      <animate attributeName="d"
               values="M68,160 Q60,168 52,176;M68,160 Q62,170 54,178;M68,160 Q60,168 52,176"
               dur="1.4s" repeatCount="indefinite"/>
    </path>

    <!-- === DRIP STREAM from cone bottom === -->
    <rect x="44" y="178" width="6" height="48" rx="3" fill="#3D1A0A" opacity="0.9">
      <animate attributeName="opacity" values="0.9;0.45;0.9" dur="1.1s" repeatCount="indefinite"/>
    </rect>

    <!-- Animated coffee drops -->
    <circle cx="47" cy="234" r="5.5" fill="url(#coffee-drop-grad)">
      <animate attributeName="cy"      values="234;318"   dur="1.5s" repeatCount="indefinite"/>
      <animate attributeName="opacity" values="1;0"       dur="1.5s" repeatCount="indefinite"/>
    </circle>
    <circle cx="47" cy="255" r="4" fill="#7B3F2A">
      <animate attributeName="cy"      values="255;322"   dur="1.9s" repeatCount="indefinite"/>
      <animate attributeName="opacity" values="0.9;0"     dur="1.9s" repeatCount="indefinite"/>
    </circle>
    <circle cx="47" cy="275" r="3" fill="#C4832A">
      <animate attributeName="cy"      values="275;326"   dur="2.1s" begin="0.5s" repeatCount="indefinite"/>
      <animate attributeName="opacity" values="0.8;0"     dur="2.1s" begin="0.5s" repeatCount="indefinite"/>
    </circle>

    <!-- === COFFEE MUG === -->
    <!-- Mug outer body (trapezoid) -->
    <polygon points="5,325 89,325 82,422 12,422" fill="#1C1917" stroke="#44403C" stroke-width="2.5"/>
    <!-- Coffee surface inside -->
    <polygon points="10,330 84,330 77,415 17,415" fill="url(#coffee-grad)" opacity="0.95"/>
    <!-- Crema top layer -->
    <ellipse cx="47" cy="331" rx="38" ry="9" fill="url(#crema-grad)"/>
    <!-- Crema swirl lines -->
    <path d="M28,330 Q39,325 47,330 Q55,335 66,330"
          fill="none" stroke="#E8AA6A" stroke-width="1.8" opacity="0.6"/>
    <path d="M34,334 Q43,330 47,334 Q51,338 60,334"
          fill="none" stroke="#D4954A" stroke-width="1.2" opacity="0.4"/>
    <!-- Mug handle -->
    <path d="M89,344 Q112,344 112,366 Q112,388 89,388"
          fill="none" stroke="#3A3530" stroke-width="6" stroke-linecap="round"/>
    <!-- Mug handle inner highlight -->
    <path d="M89,350 Q104,350 104,366 Q104,382 89,382"
          fill="none" stroke="#5A5550" stroke-width="2" stroke-linecap="round"/>

    <!-- === STEAM WISPS from mug === -->
    <path d="M22,322 Q18,304 22,286 Q26,268 22,250" fill="none" stroke="#9CA3AF" stroke-width="2.5" stroke-linecap="round">
      <animate attributeName="opacity" values="0;0.55;0" dur="2.5s" repeatCount="indefinite"/>
      <animate attributeName="d"
               values="M22,322 Q18,304 22,286 Q26,268 22,250;M22,322 Q26,304 22,286 Q18,268 22,250;M22,322 Q18,304 22,286 Q26,268 22,250"
               dur="2.5s" repeatCount="indefinite"/>
    </path>
    <path d="M47,318 Q43,300 47,282 Q51,264 47,246" fill="none" stroke="#9CA3AF" stroke-width="2.5" stroke-linecap="round">
      <animate attributeName="opacity" values="0;0.65;0" dur="2s" begin="0.7s" repeatCount="indefinite"/>
      <animate attributeName="d"
               values="M47,318 Q43,300 47,282 Q51,264 47,246;M47,318 Q51,300 47,282 Q43,264 47,246;M47,318 Q43,300 47,282 Q51,264 47,246"
               dur="2s" begin="0.7s" repeatCount="indefinite"/>
    </path>
    <path d="M72,322 Q76,304 72,286 Q68,268 72,250" fill="none" stroke="#9CA3AF" stroke-width="2.5" stroke-linecap="round">
      <animate attributeName="opacity" values="0;0.45;0" dur="3s" begin="1.3s" repeatCount="indefinite"/>
      <animate attributeName="d"
               values="M72,322 Q76,304 72,286 Q68,268 72,250;M72,322 Q68,304 72,286 Q76,268 72,250;M72,322 Q76,304 72,286 Q68,268 72,250"
               dur="3s" begin="1.3s" repeatCount="indefinite"/>
    </path>

  </g>

  <!-- ==================== WIFI SIGNAL ==================== -->
  <g id="wifi" transform="translate(970, 245)" filter="url(#glow)">
    <!-- WiFi arcs -->
    <path d="M-80,0 A80,80 0 0,1 80,0" fill="none" stroke="#3B82F6" stroke-width="4" stroke-linecap="round" opacity="0.5">
      <animate attributeName="opacity" values="0.3;0.7;0.3" dur="2s" repeatCount="indefinite"/>
    </path>
    <path d="M-56,0 A56,56 0 0,1 56,0" fill="none" stroke="#60A5FA" stroke-width="4" stroke-linecap="round" opacity="0.6">
      <animate attributeName="opacity" values="0.4;0.8;0.4" dur="2s" begin="0.3s" repeatCount="indefinite"/>
    </path>
    <path d="M-32,0 A32,32 0 0,1 32,0" fill="none" stroke="#06B6D4" stroke-width="4" stroke-linecap="round" opacity="0.8">
      <animate attributeName="opacity" values="0.5;1;0.5" dur="2s" begin="0.6s" repeatCount="indefinite"/>
    </path>
    <!-- Center dot -->
    <circle cx="0" cy="8" r="6" fill="#06B6D4"/>
  </g>

  <!-- Signal particles -->
  <g id="particles" filter="url(#glow)">
    <circle cx="890" cy="200" r="2.5" fill="#06B6D4" opacity="0.6"><animate attributeName="opacity" values="0.2;0.8;0.2" dur="3s" repeatCount="indefinite"/></circle>
    <circle cx="920" cy="170" r="2" fill="#60A5FA" opacity="0.5"><animate attributeName="opacity" values="0.3;0.7;0.3" dur="2.5s" repeatCount="indefinite"/></circle>
    <circle cx="1050" cy="190" r="3" fill="#FCD34D" opacity="0.5"><animate attributeName="opacity" values="0.2;0.6;0.2" dur="2.8s" repeatCount="indefinite"/></circle>
    <circle cx="1070" cy="220" r="2" fill="#06B6D4" opacity="0.4"><animate attributeName="opacity" values="0.3;0.8;0.3" dur="3.2s" repeatCount="indefinite"/></circle>
    <circle cx="850" cy="230" r="2" fill="#FCD34D" opacity="0.5"><animate attributeName="opacity" values="0.2;0.7;0.2" dur="2.2s" repeatCount="indefinite"/></circle>
    <circle cx="940" cy="150" r="1.5" fill="#60A5FA" opacity="0.4"><animate attributeName="opacity" values="0.1;0.6;0.1" dur="4s" repeatCount="indefinite"/></circle>
    <circle cx="1000" cy="160" r="2" fill="#06B6D4" opacity="0.5"><animate attributeName="opacity" values="0.3;0.9;0.3" dur="2.6s" repeatCount="indefinite"/></circle>
  </g>

  <!-- Data flow: coffee-colored + data-colored packets from WiFi to network -->
  <g id="data-flow" opacity="0.6">
    <circle cx="1060" cy="235" r="6" fill="#FCD34D" opacity="0.7"><animate attributeName="cx" values="1060;1080" dur="3s" repeatCount="indefinite"/></circle>
    <circle cx="1060" cy="235" r="3" fill="white" opacity="0.5"/>
    <circle cx="1090" cy="210" r="5" fill="#06B6D4" opacity="0.6"><animate attributeName="cx" values="1090;1110" dur="2.5s" repeatCount="indefinite"/></circle>
    <circle cx="1090" cy="210" r="2.5" fill="white" opacity="0.4"/>
    <circle cx="860" cy="215" r="5" fill="#FCD34D" opacity="0.6"><animate attributeName="cx" values="860;840" dur="2.8s" repeatCount="indefinite"/></circle>
    <circle cx="860" cy="215" r="2.5" fill="white" opacity="0.4"/>
    <circle cx="840" cy="245" r="4" fill="#06B6D4" opacity="0.5"><animate attributeName="cx" values="840;820" dur="3.5s" repeatCount="indefinite"/></circle>
  </g>

  <!-- ==================== NETWORK TOPOLOGY ==================== -->
  <g id="network">
    <!-- Connection lines (dotted) -->
    <line x1="1200" y1="215" x2="1100" y2="340" stroke="#30363D" stroke-width="1" stroke-dasharray="4,4"/>
    <line x1="1200" y1="215" x2="1300" y2="340" stroke="#30363D" stroke-width="1" stroke-dasharray="4,4"/>
    <line x1="1100" y1="370" x2="1050" y2="490" stroke="#30363D" stroke-width="1" stroke-dasharray="4,4"/>
    <line x1="1100" y1="370" x2="1200" y2="490" stroke="#30363D" stroke-width="1" stroke-dasharray="4,4"/>
    <line x1="1300" y1="370" x2="1200" y2="490" stroke="#30363D" stroke-width="1" stroke-dasharray="4,4"/>
    <line x1="1300" y1="370" x2="1350" y2="490" stroke="#30363D" stroke-width="1" stroke-dasharray="4,4"/>
    <line x1="1050" y1="520" x2="1200" y2="640" stroke="#30363D" stroke-width="1" stroke-dasharray="4,4"/>
    <line x1="1200" y1="520" x2="1200" y2="640" stroke="#30363D" stroke-width="1" stroke-dasharray="4,4"/>
    <line x1="1350" y1="520" x2="1200" y2="640" stroke="#30363D" stroke-width="1" stroke-dasharray="4,4"/>

    <!-- Node: ROUTER -->
    <circle cx="1200" cy="195" r="20" fill="#1A1F2B"/>
    <circle cx="1200" cy="195" r="14" fill="#161B22" stroke="#F59E0B" stroke-width="2"/>
    <circle cx="1200" cy="195" r="4" fill="#F59E0B"/>
    <text x="1200" y="230" class="mono" font-size="11" fill="#8B949E" text-anchor="middle">ROUTER</text>

    <!-- Node: NAS -->
    <circle cx="1100" cy="350" r="20" fill="#1A1F2B"/>
    <circle cx="1100" cy="350" r="14" fill="#161B22" stroke="#3B82F6" stroke-width="2"/>
    <circle cx="1100" cy="350" r="4" fill="#3B82F6"/>
    <text x="1100" y="385" class="mono" font-size="11" fill="#8B949E" text-anchor="middle">NAS</text>

    <!-- Node: DOCKER -->
    <circle cx="1300" cy="350" r="20" fill="#1A1F2B"/>
    <circle cx="1300" cy="350" r="14" fill="#161B22" stroke="#10B981" stroke-width="2"/>
    <circle cx="1300" cy="350" r="4" fill="#10B981"/>
    <text x="1300" y="385" class="mono" font-size="11" fill="#8B949E" text-anchor="middle">DOCKER</text>

    <!-- Node: CI/CD -->
    <circle cx="1050" cy="500" r="20" fill="#1A1F2B"/>
    <circle cx="1050" cy="500" r="14" fill="#161B22" stroke="#06B6D4" stroke-width="2"/>
    <circle cx="1050" cy="500" r="4" fill="#06B6D4"/>
    <text x="1050" y="535" class="mono" font-size="11" fill="#8B949E" text-anchor="middle">CI/CD</text>

    <!-- Node: GIT -->
    <circle cx="1200" cy="500" r="20" fill="#1A1F2B"/>
    <circle cx="1200" cy="500" r="14" fill="#161B22" stroke="#60A5FA" stroke-width="2"/>
    <circle cx="1200" cy="500" r="4" fill="#60A5FA"/>
    <text x="1200" y="535" class="mono" font-size="11" fill="#8B949E" text-anchor="middle">GIT</text>

    <!-- Node: MONITOR -->
    <circle cx="1350" cy="500" r="20" fill="#1A1F2B"/>
    <circle cx="1350" cy="500" r="14" fill="#161B22" stroke="#FCD34D" stroke-width="2"/>
    <circle cx="1350" cy="500" r="4" fill="#FCD34D"/>
    <text x="1350" y="535" class="mono" font-size="11" fill="#8B949E" text-anchor="middle">MONITOR</text>

    <!-- Node: HOME -->
    <circle cx="1200" cy="650" r="20" fill="#1A1F2B"/>
    <circle cx="1200" cy="650" r="14" fill="#161B22" stroke="#10B981" stroke-width="2"/>
    <circle cx="1200" cy="650" r="4" fill="#10B981"/>
    <text x="1200" y="685" class="mono" font-size="11" fill="#8B949E" text-anchor="middle">HOME</text>
  </g>

  <!-- ==================== DATA FLOW: monitor → network ==================== -->
  <g id="monitor-to-network" opacity="0.7">
    <circle r="3" fill="#F59E0B">
      <animateMotion dur="3s" repeatCount="indefinite" path="M900,400 Q1000,350 1100,300 T1200,220"/>
    </circle>
    <circle r="2" fill="#06B6D4">
      <animateMotion dur="4s" repeatCount="indefinite" path="M900,420 Q1020,380 1120,320 T1200,240"/>
    </circle>
  </g>

  <!-- ==================== BOTTOM STATUS BAR ==================== -->
  <rect x="0" y="1120" width="1600" height="80" fill="#161B22"/>
  <line x1="0" y1="1120" x2="1600" y2="1120" stroke="#30363D" stroke-width="1"/>
  
  <circle cx="50" cy="1160" r="4" fill="#10B981"/>
  <text x="62" y="1165" class="mono" font-size="14" fill="#10B981">BREWNET SERVER</text>
  
  <circle cx="290" cy="1160" r="4" fill="#06B6D4"/>
  <text x="302" y="1165" class="mono" font-size="14" fill="#06B6D4">WIFI 5GHz</text>
  
  <circle cx="490" cy="1160" r="4" fill="#F59E0B"/>
  <text x="502" y="1165" class="mono" font-size="14" fill="#F59E0B">PACKETS FLOWING</text>
  
  <circle cx="730" cy="1160" r="4" fill="#60A5FA"/>
  <text x="742" y="1165" class="mono" font-size="14" fill="#60A5FA">HOME NETWORK</text>
  
  <circle cx="950" cy="1160" r="4" fill="#10B981"/>
  <text x="962" y="1165" class="mono" font-size="14" fill="#10B981">UPTIME 99.97%</text>
</svg>
